<?xml version="1.0" encoding="UTF-8" standalone="no"?>
<!DOCTYPE svg PUBLIC "-//W3C//DTD SVG 1.1//EN" "http://www.w3.org/Graphics/SVG/1.1/DTD/svg11.dtd">
<svg width="100%" height="100%" viewBox="0 0 512 512" version="1.1" xmlns="http://www.w3.org/2000/svg" xmlns:xlink="http://www.w3.org/1999/xlink" xml:space="preserve" xmlns:serif="http://www.serif.com/" style="fill-rule:evenodd;clip-rule:evenodd;stroke-linejoin:round;stroke-miterlimit:2;">
    <g transform="matrix(0.958406,0,0,0.958406,35.739,-84.1076)">
        <path d="M232.597,255.572C232.597,255.572 232.415,269.306 242.598,269.828C297.793,272.663 275.727,326.524 275.727,326.524C275.727,326.524 332.757,255.572 232.597,255.572" style="fill:rgb(35,31,32);"/>
    </g>
    <g transform="matrix(-0.677701,-0.677689,-0.677689,0.677701,533.449,217.192)">
        <path d="M174.108,191.281C174.108,191.281 238.075,243.22 224.175,257.121C214.022,267.273 174.108,271.456 174.108,271.456C174.108,271.456 234.525,291.327 257.762,268.09C274.398,251.454 174.108,191.281 174.108,191.281" style="fill:rgb(35,31,32);"/>
    </g>
    <g transform="matrix(0.958406,0,0,0.958406,35.739,32.7355)">
        <path d="M459.368,218.781C459.368,218.781 459.368,204.678 360.11,204.678C275.162,204.678 261.006,227.221 289.289,255.504C289.289,255.504 292.123,213.112 459.368,218.781" style="fill:rgb(35,31,32);"/>
    </g>
    <g transform="matrix(0.958406,0,0,0.958406,35.739,397.077)">
        <path d="M26.538,41.374L12.795,41.374L10.03,51.21L6.294,51.21L10.089,37.713C10.288,37.009 10.457,36.405 10.644,35.868C11.249,34.088 12.238,32.579 13.616,31.438C14.958,30.296 16.781,29.456 18.487,29.153C19.715,28.921 21.224,28.818 23.126,28.818L30.068,28.818L29.266,31.672L22.007,31.672C19.682,31.672 18.443,31.94 17.117,32.646C15.613,33.484 14.607,34.928 13.956,37.245L13.598,38.521L27.34,38.521L26.538,41.374" style="fill:rgb(35,31,32);fill-rule:nonzero;"/>
    </g>
    <g transform="matrix(0.958406,0,0,0.958406,35.739,396.627)">
        <path d="M42.299,44.563L32.01,44.563C31.547,46.208 31.59,47.18 32.235,48.02C32.51,48.425 32.893,48.691 33.313,48.826C33.864,48.994 35.105,49.096 36.091,49.096L41.024,49.096L40.297,51.68L34.413,51.68C31.946,51.68 30.814,51.446 29.85,50.74C28.136,49.563 27.691,47.013 28.578,43.858C30.146,38.285 34.078,35.332 39.962,35.332L44.896,35.332L44.168,37.916L39.729,37.916C37.332,37.916 36.12,38.219 34.923,39.092C34.029,39.763 33.352,40.67 32.727,42.012L43.016,42.012L42.299,44.563ZM39.903,33.283L37.437,33.283L42.076,28.818L45.952,28.818L39.903,33.283" style="fill:rgb(35,31,32);fill-rule:nonzero;"/>
    </g>
    <g transform="matrix(0.958406,0,0,0.958406,35.739,397.077)">
        <path d="M56.387,48.626L52.159,48.626C48.67,48.626 47.792,47.113 48.944,43.02C49.585,40.735 50.583,39.192 52.027,38.319C53.017,37.68 54.105,37.446 55.867,37.446L59.531,37.446L56.387,48.626ZM60.258,34.862L56.347,34.862C52.752,34.862 50.198,35.801 48.417,37.749C47.05,39.225 45.901,41.307 45.325,43.355C44.306,46.98 45.063,49.8 47.32,50.672C48.334,51.076 49.458,51.21 51.467,51.21L59.079,51.21L65.376,28.818L61.958,28.818L60.258,34.862" style="fill:rgb(35,31,32);fill-rule:nonzero;"/>
    </g>
    <g transform="matrix(0.958406,0,0,0.958406,35.739,396.627)">
        <path d="M78.663,44.563L68.374,44.563C67.912,46.208 67.955,47.18 68.6,48.02C68.874,48.425 69.257,48.691 69.676,48.826C70.229,48.994 71.469,49.096 72.456,49.096L77.389,49.096L76.662,51.68L70.777,51.68C68.311,51.68 67.179,51.446 66.214,50.74C64.501,49.563 64.055,47.013 64.943,43.858C66.51,38.285 70.442,35.332 76.326,35.332L81.26,35.332L80.533,37.916L76.093,37.916C73.697,37.916 72.484,38.219 71.287,39.092C70.393,39.763 69.716,40.67 69.091,42.012L79.38,42.012L78.663,44.563ZM76.268,33.283L73.801,33.283L78.439,28.818L82.316,28.818L76.268,33.283" style="fill:rgb(35,31,32);fill-rule:nonzero;"/>
    </g>
    <g transform="matrix(0.958406,0,0,0.958406,35.739,402.87)">
        <path d="M89.681,28.818C92.57,28.818 93.754,29.12 94.607,30.093C95.394,30.932 95.415,32.107 94.708,34.625L94.264,36.203L91.057,36.203L91.501,34.625C92.171,32.24 91.69,31.57 89.294,31.57L87.92,31.57L84.097,45.166L80.679,45.166L85.276,28.818L89.681,28.818" style="fill:rgb(35,31,32);fill-rule:nonzero;"/>
    </g>
    <g transform="matrix(0.958406,0,0,0.958406,35.739,402.87)">
        <path d="M108.151,37.781L106.802,42.582L101.128,42.582C98.697,42.582 97.924,41.943 98.407,40.231C98.916,38.419 100.012,37.781 102.478,37.781L108.151,37.781ZM108.878,35.194L102.782,35.194C99.858,35.194 98.415,35.564 97.107,36.707C96.077,37.613 95.27,38.856 94.882,40.231C94.241,42.513 94.967,44.191 96.805,44.796C97.874,45.131 98.111,45.166 100.824,45.166L109.492,45.166L112.4,34.826C113.099,32.343 113.154,31.267 112.573,30.33C111.897,29.219 110.637,28.818 107.536,28.818L98.762,28.818L98.035,31.402L106.104,31.402C109.381,31.402 109.804,31.906 108.992,34.793L108.878,35.194" style="fill:rgb(35,31,32);fill-rule:nonzero;"/>
    </g>
    <g transform="matrix(0.958406,0,0,0.958406,35.739,397.077)">
        <path d="M121.85,28.818L125.233,28.818L123.533,34.862L128.538,34.862L127.811,37.446L122.806,37.446L120.39,46.042C120.013,47.383 119.986,47.852 120.314,48.189C120.607,48.524 121.178,48.626 122.659,48.626L124.666,48.626L123.939,51.21L120.663,51.21C118.408,51.21 117.619,51.009 116.99,50.235C116.67,49.868 116.502,49.466 116.484,49.028C116.468,48.459 116.667,47.249 116.932,46.309L119.424,37.446L116.147,37.446L116.873,34.862L120.151,34.862L121.85,28.818" style="fill:rgb(35,31,32);fill-rule:nonzero;"/>
    </g>
    <g transform="matrix(0.958406,0,0,0.958406,35.739,397.077)">
        <path d="M135.373,34.862L130.775,51.21L127.357,51.21L131.955,34.862L135.373,34.862ZM133.655,28.818L137.072,28.818L136.119,32.21L132.701,32.21L133.655,28.818" style="fill:rgb(35,31,32);fill-rule:nonzero;"/>
    </g>
    <g transform="matrix(0.958406,0,0,0.958406,35.739,402.868)">
        <path d="M140.219,37.144C141.277,33.383 143.686,31.339 147.068,31.339C150.416,31.339 151.723,33.453 150.685,37.144C149.656,40.802 147.339,42.65 143.816,42.65C140.433,42.65 139.2,40.771 140.219,37.144ZM136.639,37.346C135.195,42.482 137.529,45.335 143.167,45.335C148.664,45.335 152.764,42.281 154.227,37.076C155.747,31.671 153.532,28.651 148.035,28.651C142.29,28.651 138.206,31.773 136.639,37.346" style="fill:rgb(35,31,32);fill-rule:nonzero;"/>
    </g>
    <g transform="matrix(0.958406,0,0,0.958406,35.739,402.87)">
        <path d="M168.143,28.818C173.182,28.818 174.574,30.631 173.225,35.432L170.487,45.166L167.103,45.166L169.747,35.765C170.664,32.51 169.952,31.402 166.887,31.402L162.905,31.402L159.035,45.166L155.617,45.166L160.214,28.818L168.143,28.818" style="fill:rgb(35,31,32);fill-rule:nonzero;"/>
    </g>
    <g transform="matrix(0.958406,0,0,0.958406,35.739,397.077)">
        <path d="M204.014,41.374L190.271,41.374L187.506,51.21L183.77,51.21L187.565,37.713C187.764,37.009 187.934,36.405 188.12,35.868C188.726,34.088 189.715,32.579 191.093,31.438C192.436,30.296 194.258,29.456 195.964,29.153C197.192,28.921 198.7,28.818 200.603,28.818L207.546,28.818L206.743,31.672L199.484,31.672C197.158,31.672 195.92,31.94 194.594,32.646C193.09,33.484 192.084,34.928 191.433,37.245L191.074,38.521L204.817,38.521L204.014,41.374" style="fill:rgb(35,31,32);fill-rule:nonzero;"/>
    </g>
    <g transform="matrix(0.958406,0,0,0.958406,35.739,402.87)">
        <path d="M213.368,28.818C216.258,28.818 217.44,29.12 218.296,30.093C219.081,30.932 219.102,32.107 218.394,34.625L217.95,36.203L214.743,36.203L215.187,34.625C215.858,32.24 215.377,31.57 212.981,31.57L211.608,31.57L207.784,45.166L204.366,45.166L208.964,28.818L213.368,28.818" style="fill:rgb(35,31,32);fill-rule:nonzero;"/>
    </g>
    <g transform="matrix(0.958406,0,0,0.958406,35.739,402.87)">
        <path d="M231.839,37.781L230.49,42.582L224.815,42.582C222.384,42.582 221.612,41.943 222.095,40.231C222.604,38.419 223.698,37.781 226.167,37.781L231.839,37.781ZM232.567,35.194L226.471,35.194C223.545,35.194 222.102,35.564 220.794,36.707C219.765,37.613 218.956,38.856 218.569,40.231C217.927,42.513 218.654,44.191 220.491,44.796C221.56,45.131 221.798,45.166 224.511,45.166L233.182,45.166L236.09,34.826C236.788,32.343 236.844,31.267 236.262,30.33C235.586,29.219 234.325,28.818 231.222,28.818L222.448,28.818L221.722,31.402L229.794,31.402C233.069,31.402 233.491,31.906 232.678,34.793L232.567,35.194" style="fill:rgb(35,31,32);fill-rule:nonzero;"/>
    </g>
    <g transform="matrix(0.958406,0,0,0.958406,35.739,402.87)">
        <path d="M250.322,28.818C255.359,28.818 256.756,30.631 255.403,35.432L252.667,45.166L249.283,45.166L251.928,35.765C252.842,32.51 252.133,31.402 249.067,31.402L245.086,31.402L241.215,45.166L237.797,45.166L242.396,28.818L250.322,28.818" style="fill:rgb(35,31,32);fill-rule:nonzero;"/>
    </g>
    <g transform="matrix(0.958406,0,0,0.958406,35.739,408.693)">
        <path d="M264.833,40.433L265.221,40.433C266.876,40.433 267.506,41.206 267.082,42.717C266.608,44.394 265.264,45.166 262.831,45.166L261.035,45.166L261.441,43.723L263.134,43.723C264.225,43.723 264.84,43.42 265.027,42.75C265.207,42.11 264.852,41.877 263.65,41.877L262.842,41.877L263.625,39.09L263.52,39.09C263.38,39.09 263.21,39.055 262.974,39.023C262.039,38.956 261.306,38.822 260.755,38.654C258.309,37.948 257.308,34.86 258.328,31.235C259.054,28.651 260.49,26.434 262.36,24.923C264.353,23.345 266.248,22.742 269.42,22.742L274.883,22.742L274.155,25.326L268.691,25.326C264.958,25.326 263.07,26.902 261.936,30.933C261.476,32.577 261.401,33.718 261.655,34.693C262.052,36.035 263.05,36.506 265.551,36.506L271.011,36.506L270.285,39.09L265.211,39.09L264.833,40.433" style="fill:rgb(35,31,32);fill-rule:nonzero;"/>
    </g>
    <g transform="matrix(0.958406,0,0,0.958406,35.739,402.87)">
        <path d="M287.513,37.781L286.161,42.582L280.49,42.582C278.06,42.582 277.287,41.943 277.769,40.231C278.277,38.419 279.374,37.781 281.839,37.781L287.513,37.781ZM288.24,35.194L282.146,35.194C279.218,35.194 277.777,35.564 276.47,36.707C275.438,37.613 274.632,38.856 274.244,40.231C273.602,42.513 274.329,44.191 276.165,44.796C277.235,45.131 277.473,45.166 280.186,45.166L288.853,45.166L291.762,34.826C292.46,32.343 292.516,31.267 291.935,30.33C291.261,29.219 289.998,28.818 286.899,28.818L278.125,28.818L277.397,31.402L285.468,31.402C288.743,31.402 289.166,31.906 288.353,34.793L288.24,35.194" style="fill:rgb(35,31,32);fill-rule:nonzero;"/>
    </g>
    <g transform="matrix(0.958406,0,0,0.958406,35.739,397.077)">
        <path d="M301.486,34.862L296.889,51.21L293.471,51.21L298.068,34.862L301.486,34.862ZM299.765,28.818L303.185,28.818L302.233,32.21L298.815,32.21L299.765,28.818" style="fill:rgb(35,31,32);fill-rule:nonzero;"/>
    </g>
    <g transform="matrix(0.958406,0,0,0.958406,35.739,402.87)">
        <path d="M319.609,31.402L311.859,31.402C309.99,31.402 309.593,31.436 309.089,31.603C308.397,31.804 307.782,32.611 307.48,33.683C307.282,34.388 307.315,34.894 307.55,35.194C307.867,35.564 308.51,35.666 310.341,35.666L312.668,35.666L314.527,35.699C316.456,35.734 317.112,35.9 317.654,36.607C318.196,37.311 318.265,38.687 317.823,40.265C317.371,41.877 316.588,43.153 315.496,44.024C314.949,44.462 314.291,44.796 313.587,44.932C312.685,45.131 312.25,45.166 309.996,45.166L300.94,45.166L301.666,42.582L309.914,42.582C311.108,42.582 311.895,42.549 312.406,42.48C313.358,42.345 313.874,41.775 314.231,40.499C314.451,39.728 314.399,39.157 314.087,38.888C313.766,38.653 313.397,38.586 311.247,38.586L309.837,38.586C306.984,38.586 306.358,38.553 305.529,38.25C304.014,37.748 303.353,35.834 303.967,33.652C304.373,32.208 305.271,30.899 306.385,30.06C307.581,29.187 309.098,28.818 311.704,28.818L320.337,28.818L319.609,31.402" style="fill:rgb(35,31,32);fill-rule:nonzero;"/>
    </g>
    <g transform="matrix(0.958406,0,0,0.958406,35.739,402.87)">
        <path d="M335.04,38.049L324.752,38.049C324.291,39.694 324.333,40.666 324.978,41.506C325.252,41.911 325.637,42.177 326.056,42.312C326.607,42.48 327.85,42.582 328.833,42.582L333.769,42.582L333.041,45.166L327.156,45.166C324.69,45.166 323.559,44.932 322.593,44.226C320.88,43.049 320.435,40.499 321.323,37.344C322.887,31.771 326.819,28.818 332.708,28.818L337.639,28.818L336.911,31.402L332.472,31.402C330.077,31.402 328.862,31.705 327.667,32.578C326.772,33.249 326.095,34.156 325.471,35.498L335.761,35.498L335.04,38.049" style="fill:rgb(35,31,32);fill-rule:nonzero;"/>
    </g>
    <g transform="matrix(0.958406,0,0,0.958406,35.739,437.516)">
        <path d="M141.631,18.245L137.978,22.844L136.18,22.844L139.158,18.648L137.995,18.648L139.024,14.99L142.547,14.99L141.631,18.245" style="fill:rgb(35,31,32);fill-rule:nonzero;"/>
    </g>
    <g transform="matrix(0.958406,0,0,0.958406,35.739,451.446)">
        <path d="M11.781,20.259L7.552,20.259C4.063,20.259 3.185,18.748 4.336,14.652C4.978,12.37 5.976,10.827 7.42,9.954C8.41,9.316 9.497,9.083 11.259,9.083L14.924,9.083L11.781,20.259ZM15.65,6.498L11.74,6.498C8.145,6.498 5.591,7.437 3.81,9.384C2.443,10.86 1.294,12.941 0.718,14.989C-0.302,18.613 0.456,21.433 2.713,22.306C3.727,22.708 4.852,22.844 6.86,22.844L14.471,22.844L20.769,0.456L17.351,0.456L15.65,6.498" style="fill:rgb(35,31,32);fill-rule:nonzero;"/>
    </g>
    <g transform="matrix(0.958406,0,0,0.958406,35.739,457.236)">
        <path d="M34.056,9.685L23.767,9.685C23.304,11.331 23.347,12.302 23.992,13.143C24.267,13.545 24.649,13.815 25.069,13.948C25.622,14.117 26.861,14.217 27.849,14.217L32.781,14.217L32.054,16.802L26.169,16.802C23.704,16.802 22.571,16.567 21.607,15.861C19.893,14.688 19.448,12.135 20.335,8.981C21.902,3.41 25.835,0.456 31.719,0.456L36.652,0.456L35.925,3.041L31.485,3.041C29.089,3.041 27.877,3.342 26.68,4.215C25.786,4.885 25.108,5.791 24.484,7.135L34.773,7.135L34.056,9.685" style="fill:rgb(35,31,32);fill-rule:nonzero;"/>
    </g>
    <g transform="matrix(0.958406,0,0,0.958406,35.739,451.446)">
        <path d="M48.049,3.31L48.852,0.456L68.867,0.456L68.064,3.31L59.959,3.31L54.465,22.844L50.695,22.844L56.189,3.31L48.049,3.31" style="fill:rgb(35,31,32);fill-rule:nonzero;"/>
    </g>
    <g transform="matrix(0.958406,0,0,0.958406,35.739,451.446)">
        <path d="M73.088,6.498L68.491,22.844L65.073,22.844L69.67,6.498L73.088,6.498ZM71.37,0.456L74.788,0.456L73.834,3.847L70.416,3.847L71.37,0.456" style="fill:rgb(35,31,32);fill-rule:nonzero;"/>
    </g>
    <g transform="matrix(0.958406,0,0,0.958406,35.739,457.236)">
        <path d="M82.355,0.456C85.245,0.456 86.428,0.756 87.282,1.731C88.069,2.57 88.089,3.743 87.381,6.261L86.938,7.839L83.732,7.839L84.175,6.261C84.846,3.879 84.365,3.207 81.968,3.207L80.595,3.207L76.771,16.802L73.353,16.802L77.951,0.456L82.355,0.456" style="fill:rgb(35,31,32);fill-rule:nonzero;"/>
    </g>
    <g transform="matrix(0.958406,0,0,0.958406,35.739,450.994)">
        <path d="M109.962,15.929L108.612,20.73L102.939,20.73C100.508,20.73 99.735,20.091 100.217,18.38C100.727,16.568 101.822,15.929 104.29,15.929L109.962,15.929ZM110.689,13.345L104.593,13.345C101.669,13.345 100.226,13.714 98.918,14.856C97.888,15.763 97.081,17.005 96.694,18.38C96.051,20.662 96.777,22.34 98.616,22.945C99.685,23.282 99.922,23.315 102.635,23.315L111.303,23.315L114.211,12.977C114.91,10.494 114.965,9.418 114.384,8.48C113.709,7.371 112.448,6.969 109.347,6.969L100.572,6.969L99.846,9.554L107.915,9.554C111.192,9.554 111.615,10.057 110.803,12.944L110.689,13.345ZM109.346,0.456L105.47,0.456L109.077,4.921L111.649,4.921L109.346,0.456" style="fill:rgb(35,31,32);fill-rule:nonzero;"/>
    </g>
    <g transform="matrix(0.259498,-0.922606,-0.922606,-0.259498,137.056,585.191)">
        <path d="M117.495,13.295L140.752,13.295L141.677,10.005L118.42,10.005L117.495,13.295" style="fill:rgb(35,31,32);fill-rule:nonzero;"/>
    </g>
    <g transform="matrix(0.958406,0,0,0.958406,35.739,451.446)">
        <path d="M153.204,3.142L154.406,14.15L145.596,14.15L153.204,3.142ZM135.54,22.844L139.522,22.844L143.667,17.003L154.802,17.003L155.555,22.844L159.537,22.844L156.496,0.456L151.563,0.456L135.54,22.844" style="fill:rgb(35,31,32);fill-rule:nonzero;"/>
    </g>
    <g transform="matrix(0.958406,0,0,0.958406,35.739,457.236)">
        <path d="M171.111,0.456C174.001,0.456 175.185,0.756 176.038,1.731C176.825,2.57 176.847,3.743 176.138,6.261L175.694,7.839L172.488,7.839L172.931,6.261C173.602,3.879 173.121,3.207 170.725,3.207L169.35,3.207L165.527,16.802L162.11,16.802L166.706,0.456L171.111,0.456" style="fill:rgb(35,31,32);fill-rule:nonzero;"/>
    </g>
    <g transform="matrix(0.958406,0,0,0.958406,35.739,457.236)">
        <path d="M193.112,3.041L187.651,3.041C183.915,3.041 182.026,4.617 180.895,8.647C180.431,10.289 180.356,11.431 180.612,12.405C181.01,13.747 182.004,14.217 184.507,14.217L189.968,14.217L189.241,16.802L183.78,16.802C180.221,16.802 178.732,16.331 177.754,14.923C176.811,13.512 176.624,11.295 177.284,8.947C178.013,6.363 179.445,4.148 181.315,2.636C183.31,1.06 185.207,0.456 188.378,0.456L193.838,0.456L193.112,3.041" style="fill:rgb(35,31,32);fill-rule:nonzero;"/>
    </g>
    <g transform="matrix(0.958406,0,0,0.958406,35.739,252.092)">
        <path d="M40.809,149.696C39.277,155.412 33.467,160.1 27.749,160.1C22.033,160.1 18.65,155.412 20.182,149.696C20.182,149.696 30.638,111.943 30.647,111.909C40.961,71.206 80.868,75.067 80.868,75.067L103.221,75.067C108.098,75.067 110.992,79.011 109.685,83.887C108.378,88.762 103.366,92.722 98.49,92.722L79.091,92.722C79.091,92.722 56.954,90.374 51.702,108.257L88.816,108.257C93.945,108.257 96.989,112.409 95.615,117.538C94.24,122.67 88.968,126.833 83.838,126.833L47.359,126.833C46.904,128.537 40.809,149.696 40.809,149.696" style="fill:rgb(35,31,32);"/>
    </g>
    <g transform="matrix(0.958406,0,0,0.958406,35.739,252.092)">
        <path d="M123.807,149.696C122.275,155.412 116.465,160.1 110.748,160.1C105.032,160.1 101.649,155.412 103.18,149.696C103.18,149.696 113.637,111.943 113.646,111.909C123.959,71.206 163.866,75.067 163.866,75.067L186.22,75.067C191.096,75.067 193.99,79.011 192.684,83.887C191.377,88.762 186.364,92.722 181.488,92.722L162.089,92.722C162.089,92.722 139.953,90.374 134.7,108.257L171.814,108.257C176.943,108.257 179.988,112.409 178.613,117.538C177.238,122.67 171.966,126.833 166.837,126.833L130.358,126.833C129.902,128.537 123.807,149.696 123.807,149.696" style="fill:rgb(35,31,32);"/>
    </g>
    <g transform="matrix(0.958406,0,0,0.958406,35.739,255.783)">
        <path d="M231.689,145.897C230.159,151.614 224.284,156.248 218.567,156.248C212.85,156.248 209.457,151.614 210.988,145.897L226.819,88.869L208.105,88.869C203.228,88.869 200.335,84.91 201.642,80.035C202.948,75.159 207.96,71.206 212.836,71.206L271.754,71.206C276.629,71.206 279.523,75.159 278.217,80.035C276.91,84.91 271.898,88.869 267.022,88.869L247.368,88.869L231.689,145.897" style="fill:rgb(35,31,32);"/>
    </g>
    <g transform="matrix(0.958406,0,0,0.958406,35.739,255.895)">
        <path d="M339.735,70.955L297.029,70.955C292.152,70.955 287.141,75.043 285.834,79.919C284.527,84.794 287.42,89.023 292.297,89.023L325.529,89.023C333.672,89.023 340.721,89.898 336.322,104.133L298.165,104.133C283.82,104.133 269.077,116.049 265.234,130.394C261.39,144.739 269.902,156.383 284.247,156.383L344.223,156.383L359.463,98.303C363.449,83.178 354.619,70.955 339.735,70.955ZM326.39,138.124L295.672,138.124C291.379,138.124 288.832,134.627 289.981,130.335C291.132,126.044 295.544,122.627 299.835,122.627L330.529,122.627L326.39,138.124" style="fill:rgb(35,31,32);fill-rule:nonzero;"/>
    </g>
    <g transform="matrix(0.958406,0,0,0.958406,35.739,-29.9193)">
        <path d="M388.128,454L394.371,454C419.595,409.991 448.029,341.764 448.029,284.206C448.029,198.889 385.562,90.119 363.67,71.556L360.154,71.556C371.048,86.494 431.022,161.384 431.022,284.206C431.022,360.008 408.179,417.54 388.128,454" style="fill:rgb(35,31,32);"/>
    </g>
</svg>
