<?xml version="1.0" encoding="UTF-8" standalone="no"?>
<!DOCTYPE svg PUBLIC "-//W3C//DTD SVG 1.1//EN" "http://www.w3.org/Graphics/SVG/1.1/DTD/svg11.dtd">
<svg width="100%" height="100%" viewBox="0 0 311 311" version="1.1" xmlns="http://www.w3.org/2000/svg" xmlns:xlink="http://www.w3.org/1999/xlink" xml:space="preserve" xmlns:serif="http://www.serif.com/" style="fill-rule:evenodd;clip-rule:evenodd;stroke-linejoin:round;stroke-miterlimit:2;">
    <rect x="0" y="0.11" width="310" height="310" style="fill:none;"/>
    <g>
        <path d="M49.312,264.194L57.62,264.194L57.62,276.823C54.175,279.298 49.434,280.62 45.259,280.62C36.1,280.62 29.413,274.177 29.413,265.005C29.413,255.833 36.1,249.39 45.461,249.39C51.055,249.39 55.553,251.438 58.43,255.15L52.311,260.824C50.528,258.648 48.461,257.539 45.948,257.539C41.733,257.539 39.059,260.397 39.059,265.005C39.059,269.485 41.733,272.471 45.827,272.471C47.002,272.471 48.137,272.257 49.312,271.746L49.312,264.194Z" style="fill-rule:nonzero;"/>
        <path d="M74.764,257.838L71.278,257.838L71.278,264.835L74.764,264.835C77.398,264.835 78.655,263.512 78.655,261.336C78.655,259.16 77.398,257.838 74.764,257.838M73.871,272.429L71.278,272.429L71.278,279.938L61.713,279.938L61.713,250.073L75.371,250.073C83.274,250.073 88.299,254.425 88.299,261.336C88.299,265.646 86.354,268.888 82.95,270.722L88.908,279.938L78.695,279.938L73.871,272.429Z" style="fill-rule:nonzero;"/>
        <path d="M108.604,267.479L105.848,259.97L103.092,267.479L108.604,267.479ZM111.239,274.732L100.458,274.732L98.553,279.937L88.827,279.937L101.229,250.073L110.631,250.073L123.032,279.937L113.143,279.937L111.239,274.732Z" style="fill-rule:nonzero;"/>
        <path d="M152.535,250.073L152.535,279.937L144.674,279.937L133.892,266.37L133.892,279.937L124.572,279.937L124.572,250.073L132.433,250.073L143.215,263.639L143.215,250.073L152.535,250.073Z" style="fill-rule:nonzero;"/>
        <path d="M170.732,272.087C174.744,272.087 177.5,269.57 177.5,265.005C177.5,260.441 174.744,257.923 170.732,257.923L166.72,257.923L166.72,272.087L170.732,272.087ZM157.156,250.073L171.137,250.073C180.621,250.073 187.146,255.747 187.146,265.005C187.146,274.264 180.621,279.938 171.137,279.938L157.156,279.938L157.156,250.073Z" style="fill-rule:nonzero;"/>
        <path d="M226.631,276.225L226.631,279.937L204.959,279.937L204.959,250.074L226.033,250.074L226.033,253.786L209.225,253.786L209.225,262.957L224.199,262.957L224.199,266.584L209.225,266.584L209.225,276.225L226.631,276.225Z" style="fill-rule:nonzero;"/>
        <path d="M235.739,279.233C233.648,278.537 232.006,277.633 230.811,276.524L232.389,273.197C233.527,274.22 234.985,275.052 236.762,275.692C238.54,276.333 240.368,276.652 242.245,276.652C244.718,276.652 246.567,276.233 247.791,275.394C249.013,274.555 249.625,273.439 249.625,272.045C249.625,271.021 249.291,270.189 248.623,269.549C247.954,268.909 247.13,268.419 246.148,268.078C245.167,267.736 243.78,267.352 241.989,266.925C239.742,266.385 237.928,265.845 236.55,265.304C235.17,264.764 233.99,263.932 233.009,262.808C232.027,261.685 231.537,260.171 231.537,258.265C231.537,256.672 231.956,255.236 232.795,253.957C233.634,252.676 234.907,251.653 236.613,250.884C238.32,250.117 240.438,249.733 242.969,249.733C244.733,249.733 246.468,249.961 248.175,250.416C249.881,250.871 251.345,251.525 252.568,252.378L251.161,255.791C249.909,254.995 248.572,254.39 247.15,253.978C245.728,253.566 244.335,253.359 242.969,253.359C240.552,253.359 238.739,253.8 237.53,254.681C236.321,255.564 235.718,256.702 235.718,258.094C235.718,259.119 236.058,259.951 236.741,260.59C237.424,261.23 238.269,261.728 239.28,262.084C240.289,262.439 241.661,262.816 243.396,263.213C245.642,263.754 247.449,264.295 248.814,264.835C250.179,265.376 251.352,266.2 252.334,267.309C253.315,268.419 253.805,269.912 253.805,271.789C253.805,273.353 253.379,274.783 252.526,276.077C251.673,277.371 250.379,278.395 248.643,279.148C246.909,279.902 244.775,280.278 242.245,280.278C239.998,280.278 237.829,279.93 235.739,279.233" style="fill-rule:nonzero;"/>
        <path d="M265.538,253.786L255.3,253.786L255.3,250.074L280,250.074L280,253.786L269.762,253.786L269.762,279.937L265.538,279.937L265.538,253.786Z" style="fill-rule:nonzero;"/>
        <path d="M122.941,40.799C151.97,40.799 177.974,54.574 194.281,78.588C203.345,91.935 208.349,106.9 209.182,122.193L219.538,122.193C218.664,104.747 213.066,87.605 202.947,72.704C184.925,46.169 155.018,30.328 122.941,30.328C120.048,30.328 117.705,32.67 117.705,35.564C117.705,38.457 120.048,40.799 122.941,40.799" style="fill-rule:nonzero;"/>
        <path d="M204.4,155.252C203.983,156.45 203.571,157.649 203.099,158.838L198.592,170.2C185.472,203.269 154.006,224.639 118.431,224.639L51.77,224.639C48.876,224.639 46.534,226.982 46.534,229.875C46.534,232.767 48.876,235.11 51.77,235.11L118.431,235.11C158.328,235.11 193.616,211.148 208.329,174.062L212.835,162.7C213.81,160.244 214.64,157.754 215.404,155.252L204.4,155.252Z" style="fill-rule:nonzero;"/>
        <path d="M159.831,110.025C154.17,122.762 140.869,129.215 130.123,124.439C119.375,119.662 115.252,105.464 120.913,92.727C126.575,79.991 139.875,73.537 150.623,78.314C161.37,83.09 165.493,97.288 159.831,110.025" style="fill-rule:nonzero;"/>
        <path d="M267.034,137.112C260.852,134.296 254.669,131.486 248.486,128.674C245.952,127.522 243.417,126.376 240.886,125.218C240.325,124.961 239.772,124.89 239.215,125.187C238.251,125.698 238.041,126.743 238.672,127.795C239.977,129.969 241.284,132.141 242.591,134.316L101.753,134.316C97.202,134.316 92.734,132.224 90.332,128.356C87.826,124.323 87.753,119.42 90.11,115.335L92.492,111.27C93.656,109.281 94.014,106.821 93.091,104.71C91.954,102.109 89.508,100.523 86.741,100.523L65.771,100.523C63.313,100.523 61.02,101.846 59.791,103.976L48.037,121.699C45.411,126.244 45.493,131.7 48.278,136.19C50.953,140.492 55.924,142.821 60.989,142.821L242.776,142.821C242.452,143.361 242.126,143.899 241.802,144.44C240.737,146.214 239.668,147.988 238.604,149.764C238.132,150.553 238.213,151.359 238.808,151.953C239.371,152.516 240.059,152.605 240.919,152.213C244.404,150.631 247.885,149.045 251.369,147.461C256.572,145.097 261.777,142.738 266.974,140.362C267.294,140.216 267.633,140 267.835,139.724C268.527,138.773 268.164,137.626 267.034,137.112" style="fill-rule:nonzero;"/>
        <path d="M92.855,149.438C87.719,153.034 83.325,157.727 80.099,163.314L67.818,184.582C66.166,187.449 66.166,190.871 67.818,193.739C69.475,196.604 72.441,198.315 75.749,198.315L104.143,198.315C108.939,198.315 113.408,195.736 115.806,191.585L127.867,170.694C135.332,157.763 149.152,149.675 164.051,149.438L92.855,149.438Z" style="fill-rule:nonzero;"/>
    </g>
</svg>
