<svg clip-rule="evenodd" fill-rule="evenodd" stroke-linejoin="round" stroke-miterlimit="1.41421" viewBox="0 0 311 311" xmlns="http://www.w3.org/2000/svg"><path d="m0 .11h310v310h-310z" fill="none"/><g fill-rule="nonzero"><path d="m49.312 264.194h8.308v12.629c-3.445 2.475-8.186 3.797-12.361 3.797-9.159 0-15.846-6.443-15.846-15.615s6.687-15.615 16.048-15.615c5.594 0 10.092 2.048 12.969 5.76l-6.119 5.674c-1.783-2.176-3.85-3.285-6.363-3.285-4.215 0-6.889 2.858-6.889 7.466 0 4.48 2.674 7.466 6.768 7.466 1.175 0 2.31-.214 3.485-.725z"/><path d="m74.764 257.838h-3.486v6.997h3.486c2.634 0 3.891-1.323 3.891-3.499s-1.257-3.498-3.891-3.498m-.893 14.591h-2.593v7.509h-9.565v-29.865h13.658c7.903 0 12.928 4.352 12.928 11.263 0 4.31-1.945 7.552-5.349 9.386l5.958 9.216h-10.213z"/><path d="m108.604 267.479-2.756-7.509-2.756 7.509zm2.635 7.253h-10.781l-1.905 5.205h-9.726l12.402-29.864h9.402l12.401 29.864h-9.889z"/><path d="m152.535 250.073v29.864h-7.861l-10.782-13.567v13.567h-9.32v-29.864h7.861l10.782 13.566v-13.566z"/><path d="m170.732 272.087c4.012 0 6.768-2.517 6.768-7.082 0-4.564-2.756-7.082-6.768-7.082h-4.012v14.164zm-13.576-22.014h13.981c9.484 0 16.009 5.674 16.009 14.932 0 9.259-6.525 14.933-16.009 14.933h-13.981z"/><path d="m226.631 276.225v3.712h-21.672v-29.863h21.074v3.712h-16.808v9.171h14.974v3.627h-14.974v9.641z"/><path d="m235.739 279.233c-2.091-.696-3.733-1.6-4.928-2.709l1.578-3.327c1.138 1.023 2.596 1.855 4.373 2.495 1.778.641 3.606.96 5.483.96 2.473 0 4.322-.419 5.546-1.258 1.222-.839 1.834-1.955 1.834-3.349 0-1.024-.334-1.856-1.002-2.496-.669-.64-1.493-1.13-2.475-1.471-.981-.342-2.368-.726-4.159-1.153-2.247-.54-4.061-1.08-5.439-1.621-1.38-.54-2.56-1.372-3.541-2.496-.982-1.123-1.472-2.637-1.472-4.543 0-1.593.419-3.029 1.258-4.308.839-1.281 2.112-2.304 3.818-3.073 1.707-.767 3.825-1.151 6.356-1.151 1.764 0 3.499.228 5.206.683 1.706.455 3.17 1.109 4.393 1.962l-1.407 3.413c-1.252-.796-2.589-1.401-4.011-1.813s-2.815-.619-4.181-.619c-2.417 0-4.23.441-5.439 1.322-1.209.883-1.812 2.021-1.812 3.413 0 1.025.34 1.857 1.023 2.496.683.64 1.528 1.138 2.539 1.494 1.009.355 2.381.732 4.116 1.129 2.246.541 4.053 1.082 5.418 1.622 1.365.541 2.538 1.365 3.52 2.474.981 1.11 1.471 2.603 1.471 4.48 0 1.564-.426 2.994-1.279 4.288s-2.147 2.318-3.883 3.071c-1.734.754-3.868 1.13-6.398 1.13-2.247 0-4.416-.348-6.506-1.045"/><path d="m265.538 253.786h-10.238v-3.712h24.7v3.712h-10.238v26.151h-4.224z"/><path d="m122.941 40.799c29.029 0 55.033 13.775 71.34 37.789 9.064 13.347 14.068 28.312 14.901 43.605h10.356c-.874-17.446-6.472-34.588-16.591-49.489-18.022-26.535-47.929-42.376-80.006-42.376-2.893 0-5.236 2.342-5.236 5.236 0 2.893 2.343 5.235 5.236 5.235"/><path d="m204.4 155.252c-.417 1.198-.829 2.397-1.301 3.586l-4.507 11.362c-13.12 33.069-44.586 54.439-80.161 54.439h-66.661c-2.894 0-5.236 2.343-5.236 5.236 0 2.892 2.342 5.235 5.236 5.235h66.661c39.897 0 75.185-23.962 89.898-61.048l4.506-11.362c.975-2.456 1.805-4.946 2.569-7.448z"/><path d="m159.831 110.025c-5.661 12.737-18.962 19.19-29.708 14.414-10.748-4.777-14.871-18.975-9.21-31.712 5.662-12.736 18.962-19.19 29.71-14.413 10.747 4.776 14.87 18.974 9.208 31.711"/><path d="m267.034 137.112c-6.182-2.816-12.365-5.626-18.548-8.438-2.534-1.152-5.069-2.298-7.6-3.456-.561-.257-1.114-.328-1.671-.031-.964.511-1.174 1.556-.543 2.608 1.305 2.174 2.612 4.346 3.919 6.521h-16.605-124.233c-4.551 0-9.019-2.092-11.421-5.96-2.506-4.033-2.579-8.936-.222-13.021l2.382-4.065c1.164-1.989 1.522-4.449.599-6.56-1.137-2.601-3.583-4.187-6.35-4.187h-20.97c-2.458 0-4.751 1.323-5.98 3.453l-11.754 17.723c-2.626 4.545-2.544 10.001.241 14.491 2.675 4.302 7.646 6.631 12.711 6.631h181.787c-.324.54-.65 1.078-.974 1.619-1.065 1.774-2.134 3.548-3.198 5.324-.472.789-.391 1.595.204 2.189.563.563 1.251.652 2.111.26 3.485-1.582 6.966-3.168 10.45-4.752 5.203-2.364 10.408-4.723 15.605-7.099.32-.146.659-.362.861-.638.692-.951.329-2.098-.801-2.612"/><path d="m92.855 149.438c-5.136 3.596-9.53 8.289-12.756 13.876l-12.281 21.268c-1.652 2.867-1.652 6.289 0 9.157 1.657 2.865 4.623 4.576 7.931 4.576h28.394c4.796 0 9.265-2.579 11.663-6.73l12.061-20.891c7.465-12.931 21.285-21.019 36.184-21.256z"/></g></svg>